<svg class="icon" style="width: 1.0458984375em;height: 1em;vertical-align: middle;fill: currentColor;overflow: hidden;" viewBox="0 0 1071 1024" version="1.1" xmlns="http://www.w3.org/2000/svg" p-id="5245"><path d="M352.388664 880.97166h364.825911v82.91498H352.388664v-82.91498z m-66.331984 82.91498h497.489879v60.11336h-497.489879v-60.11336z" fill="#FF9B00" p-id="5246"></path><path d="M493.34413 681.975709h93.279352v198.995951h-93.279352v-198.995951z" fill="#FFC949" p-id="5247"></path><path d="M858.17004 626.008097H829.149798c-132.663968 0-242.526316-107.789474-242.526316-242.526316V198.995951H974.251012c53.894737 0 95.352227 43.530364 95.352227 95.352227v116.080972c2.072874 120.226721-93.279352 215.578947-211.433199 215.578947zM684.048583 296.421053v87.060728c0 80.842105 64.259109 145.101215 145.101215 145.101215h29.020242c64.259109 0 116.080972-51.821862 116.080972-116.080972v-116.080971H684.048583zM242.526316 626.008097h-29.020243C95.352227 626.008097 0 530.65587 0 412.502024v-116.080971c0-53.894737 43.530364-95.352227 95.352227-95.352227h387.62753v184.48583c0 132.663968-107.789474 240.453441-240.453441 240.453441zM95.352227 296.421053v116.080971c0 64.259109 51.821862 116.080972 116.080971 116.080972h29.020243c80.842105 0 145.101215-66.331984 145.101215-145.101215v-87.060728h-290.202429z" fill="#FF9B00" p-id="5248"></path><path d="M140.955466 35.238866h787.692307v298.493928c0 217.651822-176.194332 393.846154-393.846154 393.846153s-393.846154-176.194332-393.846153-393.846153V35.238866z" fill="#FFB400" p-id="5249"></path><path d="M364.825911 375.190283c0 97.425101 78.769231 176.194332 176.194332 176.194332s176.194332-78.769231 176.194332-176.194332-78.769231-176.194332-176.194332-176.194332-176.194332 78.769231-176.194332 176.194332z" fill="#FF9B00" p-id="5250"></path><path d="M82.91498 0h903.773279v93.279352H82.91498V0z" fill="#FFC949" p-id="5251"></path><path d="M524.437247 304.712551l-55.967611 10.364372v-35.238866l68.404858-14.510122h31.093117V497.489879h-41.45749v-192.777328z" fill="#FFFFFF" p-id="5252"></path></svg>