<svg class="icon" style="width: 1em;height: 1em;vertical-align: middle;fill: currentColor;overflow: hidden;" viewBox="0 0 1024 1024" version="1.1" xmlns="http://www.w3.org/2000/svg" p-id="7109"><path d="M939.1 379.6c-8.1-21.7-28.8-37.2-55.3-41.6-57.5-10.5-141.1-26.2-171.8-31.9-16.4-29.1-62.8-111.5-94-165.6-14.9-26.8-28.4-41.3-43.4-46.7-1.9-0.7-5.6-1.9-12-2.4l-1-0.1h-1c-7.3 0-18.5 2.2-30.6 12.5-9.5 8.1-18.4 20.1-27.1 36.6-31.7 54.1-78.5 136.2-95 165.2C377 311.3 292.3 327 234 337.5c-26.9 4.3-47.8 19.9-55.9 41.7-7.3 19.7-3.2 41.4 11.1 58.3l0.2 0.2C231.2 486.1 300 560.4 323.8 586c-4.1 30.3-14.9 110.5-21.6 168.6v0.4c-2.1 21.2 3.5 40.3 15.6 53.6 11.1 12.2 27 19 44.6 19h0.3c11.6-0.1 22.8-2.6 33.3-7.5L560.5 742c32.4 15.9 108.8 53.1 162.5 78.9l0.2 0.1c10.5 4.9 21.6 7.4 33.2 7.6h0.3c17.4 0 33.1-6.7 44.1-18.8 12.2-13.4 17.7-32.5 15.7-53.8v-0.5c-6.5-58.2-17.3-138.7-21.3-168.9 23.5-25.6 91.5-100.1 132.9-148.4l0.2-0.2c14.1-17 18.2-38.8 10.8-58.4z m-50.6 24.9c-49.9 58.2-138.9 155-139.8 155.9l-8.3 9 1.7 12.1c0.1 1.1 14.7 107.5 22.8 179.5 0.7 7.4-0.8 11.9-2.4 13.7-1.1 1.2-2.9 1.8-5.5 1.8-4-0.1-7.8-0.9-11.5-2.6-59.1-28.4-152-73.7-173.2-84.1l-11.3-5.6L374.2 773c-3.7 1.7-7.7 2.6-11.8 2.7-2 0-4.6-0.4-6-2-2.1-2.3-3-7.3-2.4-13.5 8.2-71.9 22.9-178.3 23.1-179.3l1.7-12.3-8.5-9c-0.9-1-91.2-97.7-141.4-155.7-2-2.4-2.7-4.6-1.9-6.4 1.1-3 5.8-7 15.5-8.5l0.6-0.1c72.2-13.1 185.2-34 186.3-34.2l11.9-2.2 6-10.5c0.6-1.1 62.2-109.7 100.9-175.6l0.6-1c4.9-9.3 8.9-15 11.7-18.3 2.8 3.5 6.9 9.3 12.2 18.9l0.2 0.4c38 66 99.1 174.8 99.8 175.9l5.9 10.6 11.9 2.2c1.1 0.2 112.8 21.2 184.3 34.2l0.6 0.1c9.4 1.5 14.1 5.5 15.2 8.5 0.6 1.9-0.1 4.1-2.1 6.6z" fill="#FF9C00" p-id="7110"></path></svg>