<?xml version="1.0" encoding="utf-8"?>
<!-- Generator: Adobe Illustrator 17.0.0, SVG Export Plug-In . SVG Version: 6.00 Build 0)  -->
<!DOCTYPE svg PUBLIC "-//W3C//DTD SVG 1.1//EN" "http://www.w3.org/Graphics/SVG/1.1/DTD/svg11.dtd">
<svg version="1.1" id="图层_1" xmlns="http://www.w3.org/2000/svg" xmlns:xlink="http://www.w3.org/1999/xlink" x="0px" y="0px"
	 width="612px" height="792px" viewBox="0 0 612 792" enable-background="new 0 0 612 792" xml:space="preserve">
<path fill="#F46B37" d="M306,128.25C156.825,128.25,38.25,246.825,38.25,396S156.825,663.75,306,663.75S573.75,545.175,573.75,396
	S455.175,128.25,306,128.25z M447.525,323.325l-175.95,175.95c-7.65,7.65-19.125,7.65-26.775,0l-80.325-84.15
	c-7.65-7.65-7.65-19.125,0-26.775s19.125-7.65,26.775,0l68.85,68.85l160.65-164.475c7.65-7.65,19.125-7.65,26.775,0
	S455.175,315.675,447.525,323.325L447.525,323.325z"/>
</svg>
