<?xml version="1.0" encoding="utf-8"?>
<!-- Generator: Adobe Illustrator 17.0.0, SVG Export Plug-In . SVG Version: 6.00 Build 0)  -->
<!DOCTYPE svg PUBLIC "-//W3C//DTD SVG 1.1//EN" "http://www.w3.org/Graphics/SVG/1.1/DTD/svg11.dtd">
<svg version="1.1" id="图层_1" xmlns="http://www.w3.org/2000/svg" xmlns:xlink="http://www.w3.org/1999/xlink" x="0px" y="0px"
	 width="612px" height="792px" viewBox="0 0 612 792" enable-background="new 0 0 612 792" xml:space="preserve">
<path d="M323.543,90.367c-158.929,0-288.151,124.821-288.151,278.31c-0.007,32.397,5.811,64.531,17.177,94.869
	c2.43,6.573,7.411,11.885,13.815,14.732c6.163,2.747,13.176,2.879,19.438,0.367c13.26-5.58,19.719-20.66,14.609-34.109
	c-9.106-24.254-13.765-49.951-13.754-75.858c0-124.332,106.238-225.496,236.866-225.496s236.805,101.165,236.805,225.496
	S454.049,594.112,323.36,594.112c-23.704-1.008-47.281-4.014-70.479-8.986c-77.753-15.098-174.517-33.497-247.93,75.064
	c-8.069,11.899-5.379,28.037,6.113,36.676c4.294,3.138,9.474,4.83,14.793,4.829c8.456-0.029,16.341-4.27,21.028-11.308
	c54.586-80.687,123.659-67.239,196.767-53.547c25.568,5.782,51.618,9.179,77.814,10.147c78.025,1.013,153.165-29.462,208.442-84.538
	c52.142-51.006,81.591-120.831,81.726-193.771C611.633,215.187,482.411,90.367,323.543,90.367z"/>
<path fill="#F46B37" d="M480.455,361.952c0-24.847-20.142-44.989-44.989-44.989c-24.847,0-44.989,20.142-44.989,44.989
	c0,24.847,20.142,44.989,44.989,44.989l0,0C460.299,406.908,480.422,386.785,480.455,361.952z M368.044,361.952
	c0-24.847-20.142-44.989-44.989-44.989c-24.847,0-44.989,20.142-44.989,44.989c0,24.847,20.142,44.989,44.989,44.989l0,0
	C347.887,406.908,368.01,386.785,368.044,361.952z M210.642,406.942c24.847,0,44.989-20.142,44.989-44.989
	c0-24.847-20.142-44.989-44.989-44.989c-24.847,0-44.989,20.142-44.989,44.989c0,0,0,0,0,0
	C165.687,386.785,185.81,406.908,210.642,406.942z"/>
</svg>
