<?xml version="1.0" encoding="utf-8"?>
<!-- Generator: Adobe Illustrator 17.0.0, SVG Export Plug-In . SVG Version: 6.00 Build 0)  -->
<!DOCTYPE svg PUBLIC "-//W3C//DTD SVG 1.1//EN" "http://www.w3.org/Graphics/SVG/1.1/DTD/svg11.dtd">
<svg version="1.1" id="图层_1" xmlns="http://www.w3.org/2000/svg" xmlns:xlink="http://www.w3.org/1999/xlink" x="0px" y="0px"
	 width="612px" height="792px" viewBox="0 0 612 792" enable-background="new 0 0 612 792" xml:space="preserve">
<path fill="#5E5C5C" d="M88.167,654.984v-19.742V608.5H306h217.833v26.542v19.542L88.167,654.984z M153.472,131.563v97.978v97.978
	c0.164,6.792,3.022,12.897,7.539,17.305c4.516,4.407,10.69,7.116,17.483,7.114c8.239-0.006,16.312-1.633,23.79-4.707
	c7.478-3.073,14.362-7.592,20.225-13.382l12.662-12.059l12.662-12.059l12.36,12.36l12.36,12.36
	c5.676,5.477,12.285,9.777,19.445,12.744s14.874,4.6,22.76,4.742c6.91,0,13.165-2.801,17.693-7.329s7.329-10.784,7.329-17.693v0l0,0
	v-97.676v-97.676h91.798h91.798v220.526v220.526H305.563H87.751V352.088V131.563h32.86H153.472z M299.736,131.563v74.162v97.162
	l-39.544-35.544c-3.396-3.313-7.803-4.969-12.21-4.969c-4.407,0-8.814,1.656-12.21,4.969l-40.147,37.147v-98.368v-75.368
	l52.055-0.096L299.736,131.563z M516.693,90H306H95.307c-13.581,0-25.876,5.505-34.776,14.405S46.126,125.6,46.126,139.181V396
	v256.819c0.238,13.41,5.827,25.488,14.71,34.213c8.883,8.725,21.059,14.097,34.471,14.095H306h210.693
	c13.581,0,25.876-5.505,34.776-14.405c8.9-8.9,14.405-21.195,14.405-34.776V395.564V139.181c0-13.581-5.505-25.876-14.405-34.776
	S530.274,90,516.693,90z"/>
</svg>
