<svg class="icon" style="width: 1em;height: 1em;vertical-align: middle;fill: currentColor;overflow: hidden;" viewBox="0 0 1024 1024" version="1.1" xmlns="http://www.w3.org/2000/svg" p-id="14910"><path d="M512 148.945455c71.121455 0 137.029818 25.134545 190.138182 68.049454 54.132364 43.706182 94.952727 105.797818 114.641454 178.501818l1.815273 6.981818c2.327273 0.418909 4.608 0.884364 6.888727 1.396364 49.803636 11.403636 93.789091 41.984 125.207273 83.828364a250.507636 250.507636 0 0 1 50.036364 150.155636c0 66.653091-24.203636 126.417455-64 169.425455-39.424 42.682182-94.114909 68.887273-155.275637 68.887272H280.994909c-70.842182 0-135.074909-31.464727-181.666909-81.92C52.317091 743.424 23.272727 673.233455 23.272727 596.154182c0-68.096 21.969455-130.327273 59.392-179.013818A262.376727 262.376727 0 0 1 240.64 318.603636l2.513455-4.794181a316.928 316.928 0 0 1 113.198545-120.925091A296.773818 296.773818 0 0 1 512 148.945455z m0 58.786909a247.016727 247.016727 0 0 0-136.145455 40.680727 263.074909 263.074909 0 0 0-94.068363 110.312727l-6.423273 13.963637-14.103273 1.954909a208.802909 208.802909 0 0 0-132.514909 73.960727c-32.581818 39.191273-51.944727 90.717091-51.944727 147.549091 0 60.695273 22.946909 115.898182 59.671273 155.880727 37.143273 40.401455 88.389818 65.396364 144.570182 65.396364H781.498182a158.906182 158.906182 0 0 0 118.039273-52.410182c29.509818-32.116364 47.662545-76.8 47.662545-127.162182a188.509091 188.509091 0 0 0-44.404364-120.971636c-27.834182-32.954182-66.234182-55.016727-107.985454-58.647273l-20.014546-1.722182-4.189091-21.550545c-12.474182-65.954909-45.614545-122.88-91.368727-163.188364A251.904 251.904 0 0 0 512 207.732364z m-0.232727 154.065454l34.536727 34.583273 120.971636 120.925091a24.436364 24.436364 0 1 1-34.583272 34.583273l-98.257455-98.304v253.067636a24.436364 24.436364 0 1 1-48.872727 0v-249.483636l-94.766546 94.72a24.436364 24.436364 0 0 1-34.536727-34.583273l155.461818-155.461818z" fill="#333333" p-id="14911"></path></svg>