<svg class="icon" style="width: 1em;height: 1em;vertical-align: middle;fill: currentColor;overflow: hidden;" viewBox="0 0 1024 1024" version="1.1" xmlns="http://www.w3.org/2000/svg" p-id="20979"><path d="M869.86 453.01h-73.38c0-169.84-129.05-308.03-287.68-308.03-158.64 0-287.7 138.19-287.7 308.03h-73.38c0-210.31 161.98-381.4 361.07-381.4s361.07 171.09 361.07 381.4zM234.91 731.07H124.84c-30.35 0-55.03-24.69-55.03-55.03V492.6c0-30.35 24.69-55.03 55.03-55.03H234.9c30.35 0 55.03 24.69 55.03 55.03v183.44c0.01 30.34-24.68 55.03-55.02 55.03z m-91.72-73.38h73.38V510.94h-73.38v146.75zM898.72 731.07H788.66c-30.35 0-55.03-24.69-55.03-55.03V492.6c0-30.35 24.69-55.03 55.03-55.03h110.06c30.35 0 55.03 24.69 55.03 55.03v183.44c0 30.34-24.68 55.03-55.03 55.03zM807 657.69h73.38V510.94H807v146.75zM533.49 953.52v-73.38c219.44 0 253.41-188.04 254.75-196.05l72.37 12.11c-14.88 89-102.4 257.32-327.12 257.32z" p-id="20980"></path></svg>