<?xml version="1.0" encoding="utf-8"?>
<!-- Generator: Adobe Illustrator 17.0.0, SVG Export Plug-In . SVG Version: 6.00 Build 0)  -->
<!DOCTYPE svg PUBLIC "-//W3C//DTD SVG 1.1//EN" "http://www.w3.org/Graphics/SVG/1.1/DTD/svg11.dtd">
<svg version="1.1" id="图层_1" xmlns="http://www.w3.org/2000/svg" xmlns:xlink="http://www.w3.org/1999/xlink" x="0px" y="0px"
	 width="612px" height="792px" viewBox="0 0 612 792" enable-background="new 0 0 612 792" xml:space="preserve">
<path fill="#272636" d="M551.449,505.339l-0.003,0.001l-0.065,0.008V175.336c0-24.148-19.647-43.795-43.795-43.795H105.252
	c-24.148,0-43.795,19.647-43.795,43.795v439.876c0,24.149,19.647,43.795,43.795,43.795h298.071l-0.007,0.059L551.449,505.339z
	 M402.044,605.263l-0.328-75.78c0.649-15.778,9.683-25.948,23.097-25.948c0.49,0,0.99,0.014,1.486,0.042l74.128,0.438
	L402.044,605.263z M105.252,621.468c-3.45,0-6.257-2.807-6.257-6.257l0-439.876c0-3.45,2.807-6.257,6.257-6.257h402.334
	c3.45,0,6.257,2.807,6.257,6.257V467.28l-85.85-1.204c-1.06-0.053-2.127-0.08-3.18-0.08c-33.956,0-59.455,26.35-60.63,62.655
	l-0.013,0.419l1.147,92.396L105.252,621.468L105.252,621.468z M186.577,290.04l229.911-0.626c6.219,0,16.892-8.403,16.892-18.77
	c0-10.366-10.673-18.77-16.892-18.77l-229.911,0.626c-6.219,0-16.892,7.778-16.892,18.144
	C169.685,281.011,180.358,290.04,186.577,290.04z M186.577,387.635l229.911-0.626c6.219,0,16.892-8.403,16.892-18.77
	c0-10.366-10.673-18.77-16.892-18.77l-229.911,0.626c-6.219,0-16.892,7.778-16.892,18.144
	C169.685,378.607,180.358,387.635,186.577,387.635z M315.14,452.697H185.638c-8.811,0-15.953,8.403-15.953,18.77
	s7.143,18.77,15.953,18.77H315.14c8.811,0,15.953-8.403,15.953-18.77S323.951,452.697,315.14,452.697z"/>
<path fill="#F46B37" d="M186.077,387.635l229.911-0.626c6.219,0,16.892-8.403,16.892-18.77c0-10.366-10.673-18.77-16.892-18.77
	l-229.911,0.626c-6.219,0-16.892,7.778-16.892,18.144C169.185,378.607,179.858,387.635,186.077,387.635z"/>
</svg>
