<?xml version="1.0" encoding="utf-8"?>
<!-- Generator: Adobe Illustrator 17.0.0, SVG Export Plug-In . SVG Version: 6.00 Build 0)  -->
<!DOCTYPE svg PUBLIC "-//W3C//DTD SVG 1.1//EN" "http://www.w3.org/Graphics/SVG/1.1/DTD/svg11.dtd">
<svg version="1.1" id="图层_1" xmlns="http://www.w3.org/2000/svg" xmlns:xlink="http://www.w3.org/1999/xlink" x="0px" y="0px"
	 width="612px" height="792px" viewBox="0 0 612 792" enable-background="new 0 0 612 792" xml:space="preserve">
<path fill="#999999" d="M306.264,155.951c18.67,0,37.341,9.335,46.676,29.339l17.337,34.674
	c20.004,40.008,60.012,68.014,105.355,74.682l38.675,5.334c42.675,6.668,60.012,58.679,29.339,88.018l-28.006,28.006
	c-33.34,32.007-48.01,77.349-40.008,121.358l6.668,38.675c5.334,33.34-21.338,60.012-52.011,60.012
	c-8.002,0-16.003-1.334-24.005-6.668l-34.674-18.67c-21.338-9.335-42.675-14.67-65.347-14.67c-22.671,0-44.009,5.334-65.347,16.003
	l-34.674,18.67c-8.002,4.001-16.003,6.668-24.005,6.668c-30.673,0-57.345-26.672-52.011-60.012l6.668-38.675
	c8.002-44.009-6.668-89.352-40.008-121.358l-28.006-28.006c-30.673-29.339-13.336-81.35,29.339-88.018l38.675-5.334
	c45.343-6.668,84.017-34.674,105.355-74.682l17.337-34.674C268.923,165.286,287.594,155.951,306.264,155.951 M306.264,102.607
	c-40.008,0-76.016,22.671-94.686,58.679l-17.337,34.674c-12.002,25.339-36.007,42.675-65.347,46.676L90.22,247.97
	c-40.008,5.334-73.348,33.34-85.351,72.015s-1.334,78.683,26.672,106.688l28.006,28.006c20.004,18.67,29.339,46.676,24.005,73.348
	l-6.668,38.675c-5.334,30.673,2.667,61.346,22.671,85.351c21.338,24.005,50.677,37.341,82.684,37.341
	c17.337,0,33.34-4.001,49.343-12.002l34.674-18.67c12.002-6.668,26.672-9.335,40.008-9.335s28.006,4.001,40.008,9.335l34.674,18.67
	c16.003,8.002,32.007,12.002,49.343,12.002c32.007,0,61.346-13.336,81.35-37.341c20.004-24.005,28.006-54.678,22.671-85.351
	l-6.668-38.675c-5.334-26.672,4.001-54.678,24.005-73.348l28.006-28.006c29.339-28.006,40.008-69.348,26.672-106.688
	c-12.002-38.675-45.343-66.68-85.351-72.015l-38.675-5.334c-28.006-4.001-52.011-21.338-65.347-46.676l-17.337-34.674
	C382.28,125.278,346.273,102.607,306.264,102.607z"/>
</svg>
