<svg class="icon" style="width: 1em;height: 1em;vertical-align: middle;fill: currentColor;overflow: hidden;" viewBox="0 0 1024 1024" version="1.1" xmlns="http://www.w3.org/2000/svg" p-id="4307"><path d="M903.92 864.24c-1.7 11.38-4.22 22.56-8.33 33.34-4.44 11.65-10.7 22.15-19.65 30.95-8.58 8.43-18.67 14.43-29.83 18.75-13.06 5.05-26.67 7.72-40.5 9.44-13.33 1.66-26.73 2.29-40.15 2.66-0.66 0.02-557.2 0.38-561.99 0-8-0.59-16.01-1.02-23.99-1.78-7.45-0.71-14.76-2.26-21.89-4.58-17.31-5.63-28.96-17-34.81-34.29-3.31-9.78-4.81-19.88-5.57-30.11-0.41-5.51-0.66-740.93-0.62-742.58 0.18-7.75 0.75-15.48 1.84-23.16 1-7.07 2.49-14.02 4.97-20.74 3.55-9.63 9.03-17.89 17.33-24.09 7-5.23 14.96-8.31 23.38-10.29 11.24-2.63 22.66-3.61 34.17-3.81 0.8-0.01 564.4-0.03 565.05 0 3.94 0.15 7.88 0.22 11.82 0.39 12.87 0.56 25.66 1.87 38.32 4.26 11.17 2.1 22.09 5.08 32.54 9.62 13.34 5.8 25 13.9 34.29 25.21 7.75 9.43 13.14 20.12 17 31.63 5.34 15.92 7.71 32.38 9.09 49.04 1.13 31.77 2.88 643.51-2.47 680.14zM556.9 132.46v3.25c0 105.16 0 210.32-0.01 315.48 0 1.38-0.02 2.78-0.26 4.14-1.15 6.49-4.61 11.57-10.05 15.14-10.33 6.79-21.35 7.49-32.42 2.3-18.23-8.55-36.26-17.51-54.38-26.29-11.95-5.79-23.92-11.56-35.86-17.39-1.19-0.58-2.1-0.52-3.28 0.05-15.3 7.45-30.63 14.85-45.95 22.27-14.7 7.12-29.33 14.36-44.1 21.33-9.34 4.41-18.98 4.45-28.32 0.01-9.5-4.51-14.64-11.96-14.63-22.86 0.06-104.47 0.04-208.94 0.04-313.41 0-0.76 0.02-1.52-0.01-2.29-0.02-0.53-0.11-1.05-0.18-1.63-0.61-0.04-1.08-0.1-1.56-0.09-22.44 0.13-44.88 0.23-67.32 0.44-6.72 0.06-13.4 0.75-20 2.12-9.51 1.98-15.44 7.48-17.62 17.07-1.37 6.04-2.07 12.15-2.31 18.31-0.35 8.71-0.57 17.44-0.58 26.16-0.03 210.12-0.03 420.23-0.01 630.35 0 10.38 0.02 20.78 0.98 31.13 0.42 4.53 1.16 9.06 2.1 13.52 0.88 4.17 2.65 8.01 5.84 11.04 2.96 2.81 6.59 4.27 10.45 5.27 6.33 1.66 12.83 2.16 19.33 2.38 9.55 0.31 19.11 0.51 28.66 0.51 152.62 0.03 305.23 0.03 457.85 0.01 18.84 0 37.67-0.22 56.51-0.35 12.54-0.08 25.05-0.6 37.51-2.12 6.61-0.8 13.11-2.07 19.43-4.25 10.89-3.75 18.46-10.88 22.43-21.77 2.37-6.48 3.67-13.19 4.56-19.99 1.18-9.07 1.65-18.2 1.92-27.33 0.26-8.79 0.43-17.58 0.43-26.37 0.02-168.97 0.02-337.93 0.01-506.9 0-15.93-0.13-31.86-0.16-47.79-0.02-14.13-0.21-28.25-1.31-42.34-0.59-7.6-1.44-15.16-3.3-22.57a88.96 88.96 0 0 0-2.14-7.15c-3.88-11.22-11.55-18.66-22.71-22.59-8.09-2.86-16.5-4.11-24.98-4.97-11.58-1.18-23.22-1.4-34.84-1.65-8.31-0.18-16.62-0.16-24.93-0.16-57.43-0.01-114.86-0.01-172.29-0.01-0.76-0.01-1.51-0.01-2.54-0.01zM501.07 410V133.48c-1.73-0.46-153.87-0.49-155.82-0.04-0.06 0.17-0.19 0.36-0.19 0.54-0.02 91.23-0.04 182.47-0.04 273.7 0 0.62 0.07 1.24 0.12 1.86 0 0.06 0.07 0.11 0.11 0.16 0.05 0.05 0.11 0.08 0.25 0.18 0.39-0.15 0.84-0.3 1.26-0.5 5.61-2.7 11.22-5.41 16.83-8.11 14.9-7.17 29.74-14.46 44.72-21.46 9.82-4.59 19.92-4.59 29.72 0.06 20.45 9.69 40.79 19.58 61.18 29.39 0.54 0.25 1.11 0.44 1.86 0.74z" fill="#E74260" p-id="4308"></path></svg>