<?xml version="1.0" encoding="utf-8"?>
<!-- Generator: Adobe Illustrator 17.0.0, SVG Export Plug-In . SVG Version: 6.00 Build 0)  -->
<!DOCTYPE svg PUBLIC "-//W3C//DTD SVG 1.1//EN" "http://www.w3.org/Graphics/SVG/1.1/DTD/svg11.dtd">
<svg version="1.1" id="图层_1" xmlns="http://www.w3.org/2000/svg" xmlns:xlink="http://www.w3.org/1999/xlink" x="0px" y="0px"
	 width="612px" height="792px" viewBox="0 0 612 792" enable-background="new 0 0 612 792" xml:space="preserve">
<path fill="#999999" d="M225.197,460.427h162.802c8.965,0,16.256,7.291,16.256,16.256s-7.291,16.256-16.256,16.256H225.197
	c-8.965,0-16.256-7.291-16.256-16.256S216.172,460.427,225.197,460.427z M225.197,297.566h65.145
	c8.965,0,16.256,7.291,16.256,16.256s-7.291,16.256-16.256,16.256h-65.145c-8.965,0-16.256-7.291-16.256-16.256
	C208.881,304.857,216.172,297.566,225.197,297.566z M225.197,378.967h162.802c8.965,0,16.256,7.291,16.256,16.256
	s-7.291,16.256-16.256,16.256H225.197c-8.965,0-16.256-7.291-16.256-16.256C208.881,386.258,216.172,378.967,225.197,378.967z
	 M160.052,183.593h218.204l107.459,97.717V574.4c0,17.989-14.583,32.572-32.572,32.572H160.052
	c-17.989,0-32.572-14.583-32.572-32.572V216.165C127.48,198.176,142.063,183.593,160.052,183.593z M453.382,313.882v-16.256
	l-65.384-58.032v74.289L453.382,313.882L453.382,313.882z M453.382,346.454h-81.879c-8.965,0-16.256-7.291-16.256-16.256
	c0-0.956,0.06-1.913,0.239-2.869V216.165H176.189c-8.965,0-16.256,7.291-16.256,16.256v325.663c0,8.965,7.291,16.256,16.256,16.256
	h260.937c8.965,0,16.256-7.291,16.256-16.256L453.382,346.454L453.382,346.454z"/>
</svg>
