<?xml version="1.0" encoding="utf-8"?>
<!-- Generator: Adobe Illustrator 17.0.0, SVG Export Plug-In . SVG Version: 6.00 Build 0)  -->
<!DOCTYPE svg PUBLIC "-//W3C//DTD SVG 1.1//EN" "http://www.w3.org/Graphics/SVG/1.1/DTD/svg11.dtd">
<svg version="1.1" id="图层_1" xmlns="http://www.w3.org/2000/svg" xmlns:xlink="http://www.w3.org/1999/xlink" x="0px" y="0px"
	 width="612px" height="792px" viewBox="0 0 612 792" enable-background="new 0 0 612 792" xml:space="preserve">
<path fill="#999999" d="M57.793,393.131c0,30.202,24.484,54.686,54.686,54.686s54.686-24.484,54.686-54.686
	s-24.484-54.686-54.686-54.686S57.793,362.929,57.793,393.131z"/>
<path fill="#999999" d="M253.825,393.131c0,30.202,24.484,54.686,54.686,54.686s54.686-24.484,54.686-54.686
	s-24.484-54.686-54.686-54.686S253.825,362.929,253.825,393.131z"/>
<path fill="#999999" d="M445.254,393.131c0,30.202,24.484,54.686,54.686,54.686c30.202,0,54.686-24.484,54.686-54.686
	s-24.484-54.686-54.686-54.686C469.737,338.446,445.254,362.929,445.254,393.131z"/>
</svg>
