<?xml version="1.0" encoding="utf-8"?>
<!-- Generator: Adobe Illustrator 17.0.0, SVG Export Plug-In . SVG Version: 6.00 Build 0)  -->
<!DOCTYPE svg PUBLIC "-//W3C//DTD SVG 1.1//EN" "http://www.w3.org/Graphics/SVG/1.1/DTD/svg11.dtd">
<svg version="1.1" id="图层_1" xmlns="http://www.w3.org/2000/svg" xmlns:xlink="http://www.w3.org/1999/xlink" x="0px" y="0px"
	 width="612px" height="792px" viewBox="0 0 612 792" enable-background="new 0 0 612 792" xml:space="preserve">
<path d="M581.4,702H30.6c-12.67,0-22.95-10.28-22.95-22.95c0-12.67,10.28-22.95,22.95-22.95h550.8c12.67,0,22.95,10.28,22.95,22.95
	C604.35,691.72,594.07,702,581.4,702z"/>
<path d="M91.8,610.2c-12.67,0-22.95-10.28-22.95-22.95v-229.5c0-12.67,10.28-22.95,22.95-22.95s22.95,10.28,22.95,22.95v229.5
	C114.75,599.92,104.47,610.2,91.8,610.2z"/>
<path fill="#F46B37" d="M229.5,610.2c-12.67,0-22.95-10.28-22.95-22.95v-474.3c0-12.67,10.28-22.95,22.95-22.95
	s22.95,10.28,22.95,22.95v474.3C252.45,599.92,242.17,610.2,229.5,610.2z"/>
<path d="M367.2,610.2c-12.67,0-22.95-10.28-22.95-22.95v-336.6c0-12.67,10.28-22.95,22.95-22.95s22.95,10.28,22.95,22.95v336.6
	C390.15,599.92,379.87,610.2,367.2,610.2z"/>
<path d="M504.9,610.2c-12.67,0-22.95-10.28-22.95-22.95v-244.8c0-12.67,10.28-22.95,22.95-22.95s22.95,10.28,22.95,22.95v244.8
	C527.85,599.92,517.57,610.2,504.9,610.2z"/>
</svg>
