<svg class="icon" style="width: 1em;height: 1em;vertical-align: middle;fill: currentColor;overflow: hidden;" viewBox="0 0 1024 1024" version="1.1" xmlns="http://www.w3.org/2000/svg" p-id="11924"><path d="M859.167 677.561a416.3 416.3 0 0 1-45.26 2.943c-227.949 2.404-416.894-184.375-417.015-412.337-0.022-41.938 6.213-82.415 17.823-120.551 4.759-15.631-9.814-30.293-25.392-25.365-166.976 52.819-288.01 208.991-288.01 393.436 0 227.863 184.72 412.583 412.583 412.583 158.805 0 296.654-89.722 365.623-221.239 7.555-14.407-4.2-31.411-20.352-29.47zM696.765 812.519c-54.816 33.856-118.052 51.752-182.869 51.752-93.11 0-180.647-36.259-246.485-102.098-65.839-65.839-102.098-153.375-102.098-246.485 0-75.573 23.767-147.452 68.73-207.868a350.298 350.298 0 0 1 77.107-75.722 349.915 349.915 0 0 1 24.544-16.073 480.857 480.857 0 0 0-2.803 52.176c0.133 251.971 196.94 458.874 444.883 475.278a350.513 350.513 0 0 1-81.009 69.04z" p-id="11925"></path></svg>